<svg width="112" height="112" viewBox="0 0 112 112" fill="none" xmlns="http://www.w3.org/2000/svg">
<rect width="112" height="112" fill="black"/>
<g clip-path="url(#clip0_253_724)">
<path d="M38.7368 49.5121C38.7368 50.4879 38.8421 51.2791 39.0263 51.8593C39.2368 52.4396 39.5 53.0725 39.8684 53.7582C40 53.9692 40.0526 54.1802 40.0526 54.3648C40.0526 54.6286 39.8947 54.8923 39.5526 55.156L37.8947 56.2637C37.6579 56.422 37.421 56.5011 37.2105 56.5011C36.9474 56.5011 36.6842 56.3692 36.421 56.1319C36.0526 55.7363 35.7368 55.3143 35.4737 54.8923C35.2105 54.4439 34.9474 53.9428 34.6579 53.3363C32.6052 55.7626 30.0263 56.9758 26.921 56.9758C24.7105 56.9758 22.9474 56.3428 21.6579 55.0769C20.3684 53.811 19.7105 52.1231 19.7105 50.0132C19.7105 47.7714 20.5 45.9516 22.1052 44.5802C23.7105 43.2088 25.8421 42.5231 28.5526 42.5231C29.4474 42.5231 30.3684 42.6022 31.3421 42.7341C32.3158 42.8659 33.3158 43.0769 34.3684 43.3143V41.389C34.3684 39.3846 33.9474 37.9868 33.1316 37.1692C32.2895 36.3516 30.8684 35.956 28.8421 35.956C27.921 35.956 26.9737 36.0615 26 36.2989C25.0263 36.5363 24.0789 36.8264 23.1579 37.1956C22.7368 37.3802 22.421 37.4857 22.2368 37.5385C22.0526 37.5912 21.921 37.6176 21.8158 37.6176C21.4474 37.6176 21.2631 37.3538 21.2631 36.8V35.5077C21.2631 35.0857 21.3158 34.7692 21.4474 34.5846C21.5789 34.4 21.8158 34.2154 22.1842 34.0308C23.1052 33.556 24.2105 33.1604 25.5 32.8439C26.7895 32.5011 28.1579 32.3428 29.6052 32.3428C32.7368 32.3428 35.0263 33.0549 36.5 34.4791C37.9474 35.9033 38.6842 38.0659 38.6842 40.967V49.5121H38.7368ZM28.0526 53.5209C28.921 53.5209 29.8158 53.3626 30.7631 53.0461C31.7105 52.7297 32.5526 52.1494 33.2631 51.3582C33.6842 50.8571 34 50.3033 34.1579 49.6703C34.3158 49.0374 34.421 48.2725 34.421 47.3758V46.2681C33.6579 46.0835 32.8421 45.9253 32 45.8198C31.1579 45.7143 30.3421 45.6615 29.5263 45.6615C27.7631 45.6615 26.4737 46.0044 25.6052 46.7165C24.7368 47.4286 24.3158 48.4308 24.3158 49.7494C24.3158 50.989 24.6316 51.9121 25.2895 52.545C25.921 53.2044 26.8421 53.5209 28.0526 53.5209ZM49.1842 56.3692C48.7105 56.3692 48.3947 56.2901 48.1842 56.1055C47.9737 55.9472 47.7895 55.578 47.6316 55.0769L41.4474 34.6901C41.2895 34.1626 41.2105 33.8198 41.2105 33.6352C41.2105 33.2132 41.421 32.9758 41.8421 32.9758H44.421C44.921 32.9758 45.2631 33.0549 45.4474 33.2396C45.6579 33.3978 45.8158 33.767 45.9737 34.2681L50.3947 51.7275L54.5 34.2681C54.6316 33.7406 54.7895 33.3978 55 33.2396C55.2105 33.0813 55.5789 32.9758 56.0526 32.9758H58.1579C58.6579 32.9758 59 33.0549 59.2105 33.2396C59.421 33.3978 59.6052 33.767 59.7105 34.2681L63.8684 51.9385L68.421 34.2681C68.5789 33.7406 68.7631 33.3978 68.9474 33.2396C69.1579 33.0813 69.5 32.9758 69.9737 32.9758H72.421C72.8421 32.9758 73.0789 33.1868 73.0789 33.6352C73.0789 33.767 73.0526 33.8989 73.0263 34.0571C73 34.2154 72.9474 34.4264 72.8421 34.7165L66.5 55.1033C66.3421 55.6308 66.1579 55.9736 65.9474 56.1319C65.7368 56.2901 65.3947 56.3956 64.9474 56.3956H62.6842C62.1842 56.3956 61.8421 56.3165 61.6316 56.1319C61.421 55.9472 61.2368 55.6044 61.1316 55.0769L57.0526 38.0659L53 55.0505C52.8684 55.578 52.7105 55.9209 52.5 56.1055C52.2895 56.2901 51.921 56.3692 51.4474 56.3692H49.1842ZM83 57.0813C81.6316 57.0813 80.2631 56.9231 78.9474 56.6066C77.6316 56.2901 76.6052 55.9472 75.921 55.5516C75.5 55.3143 75.2105 55.0505 75.1052 54.8132C75 54.5758 74.9474 54.3121 74.9474 54.0747V52.7297C74.9474 52.1758 75.1579 51.9121 75.5526 51.9121C75.7105 51.9121 75.8684 51.9385 76.0263 51.9912C76.1842 52.0439 76.421 52.1494 76.6842 52.2549C77.5789 52.6505 78.5526 52.967 79.5789 53.178C80.6316 53.389 81.6579 53.4945 82.7105 53.4945C84.3684 53.4945 85.6579 53.2044 86.5526 52.6242C87.4474 52.0439 87.921 51.2 87.921 50.1187C87.921 49.3802 87.6842 48.7736 87.2105 48.2725C86.7368 47.7714 85.8421 47.3231 84.5526 46.9011L80.7368 45.7143C78.8158 45.1077 77.3947 44.211 76.5263 43.0242C75.6579 41.8637 75.2105 40.5714 75.2105 39.2C75.2105 38.0923 75.4474 37.1165 75.921 36.2725C76.3947 35.4286 77.0263 34.6901 77.8158 34.1099C78.6052 33.5033 79.5 33.0549 80.5526 32.7385C81.6052 32.422 82.7105 32.2901 83.8684 32.2901C84.4474 32.2901 85.0526 32.3165 85.6316 32.3956C86.2368 32.4747 86.7895 32.5802 87.3421 32.6857C87.8684 32.8176 88.3684 32.9494 88.8421 33.1077C89.3158 33.2659 89.6842 33.4242 89.9474 33.5824C90.3158 33.7934 90.5789 34.0044 90.7368 34.2417C90.8947 34.4527 90.9737 34.7428 90.9737 35.1121V36.3516C90.9737 36.9055 90.7631 37.1956 90.3684 37.1956C90.1579 37.1956 89.8158 37.0901 89.3684 36.8791C87.8684 36.1934 86.1842 35.8505 84.3158 35.8505C82.8158 35.8505 81.6316 36.0879 80.8158 36.589C80 37.0901 79.5789 37.8549 79.5789 38.9363C79.5789 39.6747 79.8421 40.3077 80.3684 40.8088C80.8947 41.3099 81.8684 41.811 83.2631 42.2593L87 43.4461C88.8947 44.0527 90.2631 44.8967 91.0789 45.978C91.8947 47.0593 92.2895 48.2989 92.2895 49.6703C92.2895 50.8044 92.0526 51.833 91.6052 52.7297C91.1316 53.6264 90.5 54.4176 89.6842 55.0505C88.8684 55.7099 87.8947 56.1846 86.7631 56.5275C85.5789 56.8967 84.3421 57.0813 83 57.0813Z" fill="white"/>
<path fill-rule="evenodd" clip-rule="evenodd" d="M87.9737 69.8989C79.3158 76.3077 66.7368 79.7099 55.921 79.7099C40.7631 79.7099 27.1053 74.0923 16.7895 64.7561C15.9737 64.0176 16.7105 63.0154 17.6842 63.5956C28.8421 70.0835 42.6053 74.0132 56.8421 74.0132C66.4474 74.0132 77 72.0088 86.7105 67.8945C88.1579 67.2352 89.3947 68.844 87.9737 69.8989Z" fill="#FF9900"/>
<path fill-rule="evenodd" clip-rule="evenodd" d="M91.5789 65.7846C90.4737 64.3604 84.2631 65.0989 81.4474 65.4418C80.6052 65.5473 80.4737 64.8088 81.2368 64.255C86.1842 60.7736 94.3158 61.7758 95.2631 62.9363C96.2105 64.1231 95 72.2725 90.3684 76.1758C89.6579 76.7824 88.9737 76.4659 89.2895 75.6747C90.3421 73.0637 92.6842 67.1824 91.5789 65.7846Z" fill="#FF9900"/>
</g>
<defs>
<clipPath id="clip0_253_724">
<rect width="80" height="48" fill="white" transform="translate(16 32)"/>
</clipPath>
</defs>
</svg>
